<?xml version="1.0" encoding="UTF-8"?>
<!-- Generator: Adobe Illustrator 20.1.0, SVG Export Plug-In . SVG Version: 6.00 Build 0)  -->
<svg version="1.1" id="Ebene_1" xmlns="http://www.w3.org/2000/svg" xmlns:xlink="http://www.w3.org/1999/xlink" x="0px" y="0px" viewBox="0 0 282.9 118.3" style="enable-background:new 0 0 282.9 118.3;" xml:space="preserve">
<g>
	<path style="fill:#002D72;" d="M56.7,113.3v0.4h4.1c1.2,0,2.2-0.1,3.1-0.4H56.7L56.7,113.3z M73.3,113.3c0.8,0.5,1.8,0.8,2.8,0.8   c1.1,0,2.1-0.3,2.9-0.8H73.3L73.3,113.3z M84,113.3c0.6,0.6,1.4,0.8,2.2,0.8c0.9,0,1.7-0.3,2.4-0.8H84L84,113.3z M89.9,113.3v0.4   h1.9v-0.4H89.9L89.9,113.3z M95.7,113.3c0.4,0.5,1.2,0.8,2.3,0.8c0.7,0,1.3-0.2,1.9-0.4v-0.4H95.7L95.7,113.3z M102.9,113.3   c0.9,0.5,1.9,0.8,3,0.8c1,0,2-0.3,2.7-0.8H102.9L102.9,113.3z M113.9,113.3c0.8,0.5,1.8,0.8,2.8,0.8c0.9,0,1.8-0.3,2.5-0.8H113.9   L113.9,113.3z M123,113.3v0.4h1.9v-0.4H123L123,113.3z M130.1,113.3v0.4h1.9v-0.4H130.1L130.1,113.3z M136.5,113.3   c0.8,0.5,1.8,0.8,2.8,0.8c1.1,0,2.1-0.3,2.9-0.8H136.5L136.5,113.3z M152.9,113.3v0.4h2v-0.4H152.9L152.9,113.3z M164,113.3v0.4   h1.9v-0.4H164L164,113.3z M169.5,113.3c0.6,0.6,1.4,0.8,2.2,0.8c0.9,0,1.7-0.3,2.4-0.8H169.5L169.5,113.3z M175.4,113.3v0.4h1.9   v-0.4H175.4L175.4,113.3z M179.9,113.3c-0.5,0.4-0.8,1-0.8,1.7c0,1.6,1.3,3.3,5.7,3.3c5.3,0,5.6-2.5,5.6-3.5c0-0.6-0.1-1.1-0.4-1.5   h-3c0.8,0.2,1.5,0.6,1.5,1.4c0,1.8-2.4,2.1-3.7,2.1s-4-0.1-4-1.9c0-0.7,0.6-1.2,1.2-1.6H179.9L179.9,113.3z M193.3,113.3   c0.9,0.5,1.9,0.8,3,0.8c1,0,2-0.3,2.7-0.8H193.3L193.3,113.3z M202.7,113.3v0.4h1.9v-0.4H202.7L202.7,113.3z M209.1,113.3   c0.8,0.5,1.8,0.8,2.8,0.8c0.9,0,1.8-0.3,2.5-0.8H209.1L209.1,113.3z M218.5,113.3v0.4h1.9v-0.4H218.5L218.5,113.3z M225.6,113.3   v0.4h1.9v-0.4H225.6L225.6,113.3z M232,113.3c0.8,0.5,1.8,0.8,2.8,0.8c1.1,0,2.1-0.3,2.9-0.8H232L232,113.3z M241.8,113.3v0.4h1.9   v-0.4H241.8L241.8,113.3z M250.8,113.3c0.6,0.6,1.4,0.8,2.2,0.8c0.9,0,1.7-0.3,2.4-0.8H250.8L250.8,113.3z M256.7,113.3v0.4h1.9   v-0.4H256.7L256.7,113.3z M260.9,113.3v0.4h1.9v-0.4H260.9L260.9,113.3z M268,113.3v0.4h1.9v-0.4H268L268,113.3z M272.2,113.3   c-0.5,0.4-0.8,1-0.8,1.7c0,1.6,1.3,3.3,5.7,3.3c5.3,0,5.6-2.5,5.6-3.5c0-0.6-0.1-1.1-0.4-1.5h-3c0.8,0.2,1.5,0.6,1.5,1.4   c0,1.8-2.4,2.1-3.7,2.1c-1.3,0-4-0.1-4-1.9c0-0.7,0.6-1.2,1.2-1.6H272.2L272.2,113.3z"/>
	<path style="fill:#002D72;" d="M56.7,108.3v5h7.2c2.5-0.7,4.1-2.4,4.8-5h-2.1c-0.9,2.5-2.9,3.7-6.1,3.7h-1.9v-3.7H56.7L56.7,108.3z    M70.8,108.3c0.2,2.5,1.2,4.1,2.5,5H79c0.9-0.5,1.5-1.3,1.9-2.2l-1.4-0.9c-0.7,1.2-1.9,2.3-3.3,2.3c-1.8,0-3.3-1.1-3.5-4.2   L70.8,108.3L70.8,108.3z M82.8,108.3v1.3c0,1.9,0.4,3.1,1.2,3.7h4.6c0.4-0.3,0.9-0.6,1.3-1v1h1.9v-5h-1.9v2.2c-0.7,0.9-2.3,2-3.4,2   c-1.5,0-1.8-2-1.8-3.4v-0.8L82.8,108.3L82.8,108.3z M95.1,108.3v1.2c0,1.5-0.1,3,0.7,3.8h4.2v-1c-0.5,0.1-1,0.2-1.5,0.2   c-1.5,0-1.5-0.8-1.5-2.1v-2L95.1,108.3L95.1,108.3z M107.1,108.3c0.8,0.4,1.4,1,1.4,1.9c0,1.5-1.2,2.3-2.6,2.3   c-1.6,0-2.7-0.8-3.5-2.1l-1.5,0.9c0.5,0.9,1.2,1.6,2,2h5.7c1-0.7,1.7-1.9,1.7-3.4c0-0.6-0.1-1.2-0.4-1.6L107.1,108.3L107.1,108.3z    M111.4,108.3c0.2,2.5,1.2,4.1,2.5,5h5.3c1-0.6,1.7-1.7,2.1-2.8l-1.5-0.7c-0.6,1.3-1.5,2.6-3.1,2.7c-2.4,0-3.2-2.2-3.4-4.2H111.4   L111.4,108.3z M123,108.3v5h1.9v-5H123L123,108.3z M130.1,108.3v5h1.9v-5H130.1L130.1,108.3z M134,108.3c0.2,2.5,1.2,4.1,2.5,5h5.7   c0.9-0.5,1.5-1.3,1.9-2.2l-1.3-0.9c-0.7,1.2-1.9,2.3-3.3,2.3c-1.8,0-3.3-1.1-3.5-4.2L134,108.3L134,108.3z M152.9,108.3v5h2v-5   H152.9L152.9,108.3z M164,108.3v5h1.9v-5H164L164,108.3z M168.3,108.3v1.3c0,1.9,0.4,3.1,1.2,3.7h4.6c0.4-0.3,0.9-0.6,1.3-1v1h1.9   v-5h-1.9v2.2c-0.7,0.9-2.3,2-3.4,2c-1.5,0-1.8-2-1.8-3.4v-0.8L168.3,108.3L168.3,108.3z M181.2,108.3c-0.7,0.7-1.5,1.1-1.5,2.2   c0,1,0.9,1.5,1.7,1.9c-0.5,0.2-1.1,0.5-1.5,0.9h2.2c0.4-0.2,0.9-0.3,1.3-0.4l2,0.2c0.4,0,1.1,0.1,1.7,0.2h3   c-1.7-3.1-8.5-1.6-8.5-3.1c0-0.7,0.7-1.1,1.1-1.4c0.7,0.3,1.4,0.4,2.1,0.4c1.1,0,2-0.3,2.7-0.9L181.2,108.3L181.2,108.3z    M197.5,108.3c0.8,0.4,1.4,1,1.4,1.9c0,1.5-1.2,2.3-2.6,2.3c-1.6,0-2.7-0.8-3.5-2.1l-1.5,0.9c0.5,0.9,1.2,1.6,2,2h5.7   c1-0.7,1.7-1.9,1.7-3.4c0-0.6-0.1-1.2-0.4-1.6L197.5,108.3L197.5,108.3z M202.7,108.3v5h1.9v-5H202.7L202.7,108.3z M206.7,108.3   c0.2,2.5,1.2,4.1,2.5,5h5.3c1-0.6,1.7-1.7,2.1-2.8l-1.5-0.7c-0.6,1.3-1.5,2.6-3.1,2.7c-2.4,0-3.2-2.2-3.4-4.2H206.7L206.7,108.3z    M218.5,108.3v5h1.9v-5H218.5L218.5,108.3z M225.6,108.3v5h1.9v-5H225.6L225.6,108.3z M229.6,108.3c0.2,2.5,1.2,4.1,2.5,5h5.7   c0.9-0.5,1.5-1.3,1.9-2.2l-1.4-0.9c-0.7,1.2-1.9,2.3-3.3,2.3c-1.8,0-3.3-1.1-3.5-4.2L229.6,108.3L229.6,108.3z M241.8,108.3v5h1.9   v-5H241.8L241.8,108.3z M249.6,108.3v1.3c0,1.9,0.4,3.1,1.2,3.7h4.6c0.4-0.3,0.9-0.6,1.3-1v1h1.9v-5h-1.9v2.2c-0.7,0.9-2.3,2-3.4,2   c-1.5,0-1.8-2-1.8-3.4v-0.8L249.6,108.3L249.6,108.3z M260.9,108.3v5h1.9v-5H260.9L260.9,108.3z M268,108.3v5h1.9v-5H268L268,108.3   z M273.5,108.3c-0.7,0.7-1.5,1.1-1.5,2.2c0,1,0.9,1.5,1.7,1.9c-0.5,0.2-1.1,0.5-1.5,0.9h2.2c0.4-0.2,0.9-0.3,1.3-0.4l2,0.2   c0.4,0,1.1,0.1,1.7,0.2h3c-1.7-3.1-8.5-1.6-8.5-3.1c0-0.7,0.7-1.1,1.1-1.4c0.7,0.3,1.4,0.4,2.1,0.4c1.1,0,2-0.3,2.7-0.9   L273.5,108.3L273.5,108.3z"/>
	<path style="fill:#002D72;" d="M56.7,102.3v6h2v-6H56.7L56.7,102.3z M67.1,102.3c0.1,0.6,0.1,1.2,0.1,1.8c0,1.7-0.2,3-0.6,4.2h2.1   c0.3-1.2,0.5-2.5,0.5-4.1c0-0.7,0-1.3-0.1-1.9H67.1L67.1,102.3z M71.9,102.3c-0.7,1.1-1.1,2.7-1.1,4.7c0,0.4,0,0.9,0.1,1.3h2   c0-0.3,0-0.6,0-0.9h8c0.1-1.7-0.1-3.6-0.9-5.1h-2.3c0.9,0.9,1.2,2.3,1.2,3.5h-6c0-1.2,0.5-2.6,1.4-3.5H71.9L71.9,102.3z    M82.8,102.3v6h1.9v-6H82.8L82.8,102.3z M89.9,102.3v6h1.9v-6H89.9L89.9,102.3z M95.1,102.3v6H97v-6H95.1L95.1,102.3z M101.8,102.3   c-0.2,0.4-0.3,0.9-0.3,1.4c0,3.4,3.6,3.6,5.6,4.6h2.8c-1.5-2.6-6.6-1.9-6.6-4.7c0-0.5,0.2-1,0.5-1.3H101.8L101.8,102.3z    M107.7,102.3c0.3,0.3,0.6,0.6,0.9,1.1l1.3-1l0,0L107.7,102.3L107.7,102.3z M112.5,102.3c-0.7,1.1-1.1,2.7-1.1,4.7   c0,0.4,0,0.9,0.1,1.3h1.9c0-0.4-0.1-0.9-0.1-1.3c0-1.6,0.3-3.7,1.5-4.7H112.5L112.5,102.3z M118.4,102.3c0.5,0.5,0.8,1.2,1,1.8   l1.6-0.7c-0.1-0.4-0.3-0.7-0.5-1.1L118.4,102.3L118.4,102.3z M123,102.3v6h1.9v-4.7c0.4-0.4,0.9-0.9,1.4-1.3H123L123,102.3z    M129.8,102.3c0.4,0.7,0.3,1.8,0.3,2.7v3.3h1.9v-3.8c0-0.9-0.1-1.6-0.3-2.2H129.8L129.8,102.3z M135,102.3   c-0.7,1.1-1.1,2.7-1.1,4.7c0,0.4,0,0.9,0.1,1.3h2c0-0.3,0-0.6,0-0.9h8c0.1-1.7-0.1-3.6-0.9-5.1h-2.3c0.9,0.9,1.2,2.3,1.2,3.5h-6   c0-1.2,0.5-2.6,1.4-3.5H135L135,102.3z M152.9,102.3v6h2v-3.8h5.7v-1.7h-5.7v-0.5H152.9L152.9,102.3z M164,102.3v6h1.9v-6H164   L164,102.3z M168.3,102.3v6h1.9v-6H168.3L168.3,102.3z M175.4,102.3v6h1.9v-6H175.4L175.4,102.3z M180.5,102.3   c-0.4,0.7-0.6,1.4-0.6,2.3c0,1.6,0.5,2.4,1.5,3.5c-0.1,0.1-0.1,0.2-0.2,0.2h6.4c1.1-0.8,1.7-2.1,1.7-3.7c0-0.8-0.2-1.6-0.6-2.3h-2   c0.5,0.6,0.8,1.4,0.8,2.3c0,1.8-1.1,3.2-3,3.2c-1.7,0-2.8-1.5-2.8-3.1c0-0.9,0.3-1.7,0.9-2.3L180.5,102.3L180.5,102.3z    M192.2,102.3c-0.2,0.4-0.3,0.9-0.3,1.4c0,3.4,3.6,3.6,5.6,4.6h2.8c-1.5-2.6-6.6-1.9-6.6-4.7c0-0.5,0.2-1,0.5-1.3H192.2   L192.2,102.3z M198.2,102.3c0.3,0.3,0.6,0.6,0.9,1.1l1.3-1l0,0L198.2,102.3L198.2,102.3z M202.7,102.3v6h1.9v-6H202.7L202.7,102.3z    M207.7,102.3c-0.7,1.1-1.1,2.7-1.1,4.7c0,0.4,0,0.9,0.1,1.3h1.9c0-0.4-0.1-0.9-0.1-1.3c0-1.6,0.3-3.7,1.5-4.7H207.7L207.7,102.3z    M213.6,102.3c0.5,0.5,0.8,1.2,1,1.8l1.6-0.7c-0.1-0.4-0.3-0.7-0.5-1.1L213.6,102.3L213.6,102.3z M218.5,102.3v6h1.9v-4.7   c0.4-0.4,0.9-0.9,1.4-1.3H218.5L218.5,102.3z M225.2,102.3c0.4,0.7,0.3,1.8,0.3,2.7v3.3h1.9v-3.8c0-0.9-0.1-1.6-0.3-2.2H225.2   L225.2,102.3z M230.6,102.3c-0.7,1.1-1.1,2.7-1.1,4.7c0,0.4,0,0.9,0.1,1.3h2c0-0.3,0-0.6,0-0.9h8c0.1-1.7-0.1-3.6-0.9-5.1h-2.3   c0.9,0.9,1.2,2.3,1.2,3.5h-6c0-1.2,0.5-2.6,1.4-3.5H230.6L230.6,102.3z M241.8,102.3v6h1.9v-2.1c0.5-1.4,1.3-3.1,2.6-3.9h-2   c-0.2,0.3-0.3,0.6-0.5,1v-1H241.8L241.8,102.3z M249.6,102.3v6h1.9v-6H249.6L249.6,102.3z M256.7,102.3v6h1.9v-6H256.7L256.7,102.3   z M260.9,102.3v6h1.9v-4.7c0.4-0.4,0.9-0.9,1.4-1.3H260.9L260.9,102.3z M267.7,102.3c0.4,0.7,0.3,1.8,0.3,2.7v3.3h1.9v-3.8   c0-0.9-0.1-1.6-0.3-2.2H267.7L267.7,102.3z M272.8,102.3c-0.4,0.7-0.6,1.4-0.6,2.3c0,1.6,0.5,2.4,1.5,3.5c-0.1,0.1-0.1,0.2-0.2,0.2   h6.4c1.1-0.8,1.7-2.1,1.7-3.7c0-0.8-0.2-1.6-0.6-2.3h-2c0.5,0.6,0.8,1.4,0.8,2.3c0,1.8-1.1,3.2-3,3.2c-1.7,0-2.8-1.5-2.8-3.1   c0-0.9,0.3-1.7,0.9-2.3L272.8,102.3L272.8,102.3z"/>
	<path style="fill:#002D72;" d="M58.6,102.3v-5.7h2.8c3.4,0,5.2,2,5.7,5.7h2c-0.5-4.3-3-7.4-7.8-7.4h-4.6v7.4H58.6L58.6,102.3z    M74.2,102.3c0.5-0.4,1.1-0.7,1.8-0.7c0.7,0,1.2,0.3,1.6,0.7h2.3c-0.7-1.3-1.9-2.3-3.8-2.3c-1.7,0-3.3,0.7-4.2,2.3H74.2L74.2,102.3   z M84.7,102.3v-1.9h-1.9v1.9H84.7L84.7,102.3z M91.8,102.3v-1.9h-1.9v1.9H91.8L91.8,102.3z M96.9,102.3V102h3v-1.6h-3V96H95v4.3h-2   v1.6h2v0.3L96.9,102.3L96.9,102.3z M103.7,102.3c0.5-0.5,1.2-0.7,1.9-0.7c0.9,0,1.5,0.3,2.1,0.7h2.2c-1-1.5-2.6-2.3-4.4-2.3   c-1.7,0-3.2,0.8-3.8,2.3H103.7L103.7,102.3z M114.7,102.3c0.5-0.4,1.1-0.7,2-0.7c0.7,0,1.2,0.3,1.7,0.7h2.1c-0.8-1.4-2-2.3-3.8-2.3   c-1.7,0-3.3,0.7-4.2,2.3H114.7L114.7,102.3z M126.4,102.3c0.6-0.4,1.4-0.8,2-0.8c0.8,0,1.2,0.3,1.5,0.7h1.9   c-0.5-1.7-1.7-2.3-3.1-2.3c-1.5,0-2.6,0.9-3.7,1.8v-6.8h-2v7.4L126.4,102.3L126.4,102.3z M137.3,102.3c0.5-0.4,1.1-0.7,1.8-0.7   s1.2,0.3,1.6,0.7h2.3c-0.7-1.3-1.9-2.3-3.8-2.3c-1.7,0-3.3,0.7-4.2,2.3H137.3L137.3,102.3z M154.9,102.3v-5.7h7.5v-1.7H153v7.4   L154.9,102.3L154.9,102.3z M165.9,102.3v-7.4H164v7.4H165.9L165.9,102.3z M170.2,102.3v-1.9h-1.9v1.9H170.2L170.2,102.3z    M177.3,102.3v-1.9h-1.9v1.9H177.3L177.3,102.3z M182.6,102.3c0.5-0.5,1.2-0.9,2.1-0.9c0.9,0,1.6,0.3,2.1,0.9h2   c-0.1-0.1-0.2-0.3-0.2-0.4c0.5-0.3,0.8-0.3,1.3-0.3h0.7v-1.7c-1.1-0.1-2.1,0.4-3,1c-0.9-0.6-1.8-0.9-2.9-0.9   c-1.8,0-3.4,0.9-4.1,2.3H182.6L182.6,102.3z M194.2,102.3c0.5-0.5,1.2-0.7,1.9-0.7c0.9,0,1.5,0.3,2.1,0.7h2.2   c-1-1.5-2.6-2.3-4.4-2.3c-1.7,0-3.2,0.8-3.8,2.3H194.2L194.2,102.3z M204.6,102.3v-1.9h-1.9v1.9H204.6L204.6,102.3z M210,102.3   c0.5-0.4,1.1-0.7,2-0.7c0.7,0,1.2,0.3,1.7,0.7h2.1c-0.8-1.4-2-2.3-3.8-2.3c-1.7,0-3.3,0.7-4.2,2.3H210L210,102.3z M221.8,102.3   c0.6-0.4,1.4-0.8,2-0.8c0.8,0,1.2,0.3,1.5,0.7h1.9c-0.5-1.7-1.7-2.3-3.1-2.3c-1.5,0-2.6,0.9-3.7,1.8v-6.8h-1.9v7.4L221.8,102.3   L221.8,102.3z M232.9,102.3c0.5-0.4,1.1-0.7,1.8-0.7s1.2,0.3,1.6,0.7h2.3c-0.7-1.3-1.9-2.3-3.8-2.3c-1.7,0-3.3,0.7-4.2,2.3H232.9   L232.9,102.3z M243.8,102.3v-1.9h-1.9v1.9H243.8L243.8,102.3z M246.3,102.3c0.5-0.3,1.2-0.5,1.9-0.4v-1.7h-0.7   c-1.6,0-2.5,0.9-3.2,2.1H246.3L246.3,102.3z M251.5,102.3v-1.9h-1.9v1.9H251.5L251.5,102.3z M258.6,102.3v-1.9h-1.9v1.9H258.6   L258.6,102.3z M264.2,102.3c0.6-0.4,1.4-0.8,2-0.8c0.8,0,1.2,0.3,1.5,0.7h1.9c-0.5-1.7-1.7-2.3-3.1-2.3c-1.5,0-2.6,0.9-3.7,1.8   v-1.4h-1.9v1.9h3.3V102.3z M275,102.3c0.5-0.5,1.2-0.9,2.1-0.9s1.6,0.3,2.1,0.9h2c-0.1-0.1-0.2-0.3-0.2-0.4   c0.5-0.3,0.8-0.3,1.4-0.3h0.7v-1.7c-1.1-0.1-2.1,0.4-3,1c-0.9-0.6-1.8-0.9-2.9-0.9c-1.8,0-3.4,0.9-4.1,2.3H275L275,102.3z    M204.6,94.9h-1.9V97h1.9V94.9L204.6,94.9z"/>
	<path style="fill:#002D72;" d="M30.5,112.3c2.2,1.1,5,1.8,7.4,1.8c4.1,0,8.3-2.3,8.3-6.8c0-3.3-2.1-4.8-5.1-5.5l-1.6-0.4   c-0.5-0.1-1.4-0.2-1.4-0.9c0-0.8,0.9-1,1.5-1c1.5,0,2.8,0.6,4,1.4l1.9-4.9c-1.9-1.1-3.9-1.7-6.1-1.7c-4.2,0-8.3,2.5-8.3,7.1   c0,3,2.3,4.6,5,5.1l1.4,0.3c0.6,0.1,1.6,0.2,1.6,1.1S38,109,37.3,109c-1.6,0-3.1-0.8-4.3-1.8l-0.4-0.3L30.5,112.3L30.5,112.3z    M17.7,113.7h7V107h5.1v-5h-5.1v-2h5.8v-5.5H17.7V113.7L17.7,113.7z M6.3,100.5h0.4c2.3,0,3.7,1.1,3.7,3.8c0,2.5-1.6,3.6-3.7,3.6   H6.3V100.5L6.3,100.5z M0,113.7h7.9c5.1,0,8.7-3.6,8.7-9.3c0-7-4.4-9.9-10.2-9.9H0V113.7L0,113.7z"/>
	<path style="fill:#002D72;" d="M154.5,50.1h-48.9c-1.2-3.7-1.9-7.7-1.9-11.9c0-21.1,17.1-38.3,38.3-38.3L205,0l-3.7,3.7h-59.2   c-19.1,0-34.6,15.5-34.6,34.6c0,3.1,0.4,6,1.1,8.8l8.8-8.7h48.8L154.5,50.1L154.5,50.1z M176.8,28l-6.4,6.3h-48.8L131,25h49   c1.3,3.9,2,8,2,12.3c0,21.1-17.1,38.3-38.3,38.3H80l19.4-19.3h48.8l-15.7,15.6h10.9c19.1,0,34.6-15.5,34.6-34.6   C178,34.1,177.6,31,176.8,28L176.8,28z M198.4,6.5l-4.6,4.6H145l4.6-4.6L198.4,6.5L198.4,6.5z M190.3,14.6l-7,7h-48.8l7-7H190.3   L190.3,14.6z"/>
</g>
</svg>