<?xml version="1.0" encoding="UTF-8"?>
<svg width="398px" height="300px" viewBox="0 0 398 300" version="1.1" xmlns="http://www.w3.org/2000/svg" xmlns:xlink="http://www.w3.org/1999/xlink">
    <!-- Generator: Sketch 53.2 (72643) - https://sketchapp.com -->
    <title>EANS Logo</title>
    <desc>Created with Sketch.</desc>
    <g id="EANS-Logo" stroke="none" stroke-width="1" fill="none" fill-rule="evenodd">
        <path d="M229.491861,70.1375484 L214.302888,36.0435302 L199.016274,70.1375484 L229.491861,70.1375484 Z M354.616381,1.05780867 C355.856692,2.35842908 355.86021,4.4030149 354.624297,5.71770557 L285.728094,78.7432761 L327.836217,132.297355 L327.836217,78.7133768 L335.194516,78.7133768 L335.194516,145.570014 L329.173289,145.570014 L285.990231,90.7513705 L285.990231,145.570014 L278.63457,145.570014 L278.63457,86.2611962 L76.1770932,300 L66.8518889,300 L306.36564,46.9963545 L10.4247709,300 L0,300 L240.286086,94.5793628 L232.455413,76.920297 L196.051842,76.920297 L188.121768,94.5881567 L184.6401,94.5881567 L180.385217,94.5881567 L122.072123,94.5881567 L122.072123,27.7306399 L170.410829,27.7306399 L170.410829,34.6048453 L129.616909,34.6048453 L129.616909,57.4391315 L166.115482,57.4391315 L166.115482,64.3124575 L129.616909,64.3124575 L129.616909,87.7139514 L183.495671,87.7139514 L210.859925,27.2566478 L217.931458,27.2566478 L246.139299,89.5756238 L349.961255,0.816855333 C351.327357,-0.357132657 353.368153,-0.256002606 354.616381,1.05780867 L354.616381,1.05780867 Z M376.219785,108.515084 C391.122871,111.757401 398,117.202595 398,127.429042 L398,127.614593 C398,139.078344 388.446966,146.527672 375.16772,146.527672 C364.559981,146.527672 355.868127,142.990758 347.84305,135.827233 L352.521926,130.288824 C359.496697,136.59758 366.18646,139.745803 375.452727,139.745803 C384.433987,139.745803 390.357572,134.972464 390.357572,128.377905 L390.357572,128.189716 C390.357572,121.984727 387.011371,118.445176 372.970346,115.481625 C357.587849,112.146972 350.518956,107.177529 350.518956,96.1948055 L350.518956,96.0004599 C350.518956,85.4943666 359.784343,77.7565986 372.490935,77.7565986 C382.236613,77.7565986 389.209625,80.5258032 395.993511,85.9701176 L391.597884,91.8031231 C385.39105,86.738706 379.178059,84.5384678 372.302689,84.5384678 C363.608196,84.5384678 358.064621,89.3126856 358.064621,95.3330016 L358.064621,95.5273471 C358.064621,101.82643 361.504066,105.364223 376.219785,108.515084 L376.219785,108.515084 Z" id="Fill-1" fill="rgb(0, 76, 135)"/>
    </g>
</svg>