<?xml version="1.0" encoding="UTF-8"?>
<!-- Generator: Adobe Illustrator 19.2.1, SVG Export Plug-In . SVG Version: 6.00 Build 0)  -->
<svg version="1.1" id="svg13219" inkscape:version="0.91 r13725" sodipodi:docname="ENAV logo.svg" xmlns:cc="http://creativecommons.org/ns#" xmlns:dc="http://purl.org/dc/elements/1.1/" xmlns:inkscape="http://www.inkscape.org/namespaces/inkscape" xmlns:rdf="http://www.w3.org/1999/02/22-rdf-syntax-ns#" xmlns:sodipodi="http://sodipodi.sourceforge.net/DTD/sodipodi-0.dtd" xmlns:svg="http://www.w3.org/2000/svg" xmlns="http://www.w3.org/2000/svg" xmlns:xlink="http://www.w3.org/1999/xlink" x="0px" y="0px" viewBox="0 0 1006.3 295.1" style="enable-background:new 0 0 1006.3 295.1;" xml:space="preserve">
<style type="text/css">
	.st0{fill:#FFFFFF;}
	.st1{fill:#0054A6;}
	.st2{fill:#CD1232;}
	.st3{fill:#007853;}
</style>
<sodipodi:namedview bordercolor="#666666" borderopacity="1" fit-margin-bottom="0" fit-margin-left="0" fit-margin-right="0" fit-margin-top="0" gridtolerance="10" guidetolerance="10" id="namedview8" inkscape:current-layer="svg13219" inkscape:cx="442.81139" inkscape:cy="147.53128" inkscape:pageopacity="0" inkscape:pageshadow="2" inkscape:window-height="480" inkscape:window-maximized="0" inkscape:window-width="640" inkscape:window-x="75" inkscape:window-y="34" inkscape:zoom="0.29003906" objecttolerance="10" pagecolor="#ffffff" showgrid="false">
	</sodipodi:namedview>
<g>
	<path class="st0" d="M351,140.8l-93.6,133.7h0L155.6,129.2c-6.9-9.8-18.3-16.2-31.1-16.2c-21,0-38.1,17-38.1,38c0,21,17,38,38.1,38   c18,0,33.1-12.5,37-29.3l51.3,73.2c-22,23.7-53.4,38.5-88.3,38.5C57.9,271.5,4,217.6,4,151C4,84.5,57.9,30.6,124.5,30.6   c40.8,0,76.9,20.3,98.7,51.4l34.2,48.8l26.3-37.7L340.8,83L351,140.8z"/>
	<path class="st1" d="M1001.1,135.4l-73.7,138.7l-73.7-138.7h28.7l45,91.1l45-91.1H1001.1z M623.7,159.4c22.3,0,40.5,18.2,40.5,40.5   v71.1l23.2-0.1v-72.6c0-35.1-28.6-63.7-63.7-63.7c-35.1,0-63.7,28.6-63.7,63.7V271l23.2,0.1v-71.1   C583.2,177.6,601.3,159.4,623.7,159.4 M465.4,135.7c-37.5,0-67.9,30.5-67.9,67.9c0,37.6,30.6,68.2,68.2,68.2   c26,0,50.9-16.1,61.8-40.1l0.4-0.8h-25.8l-0.2,0.2c-7.9,10.6-21.5,16.9-36.4,16.9c-18.1,0-33.6-9-40.5-23.5l-0.4-1   c-3.3-6.2-3.8-13.4-3.8-20.2c0-7.9,1.5-14.5,4.5-20.3c6.9-14.9,21.6-23.5,40.4-23.5c20.7,0,36.4,11,43.1,30.2l0.6,1.8h-67.6   l-0.1,0.4l-1.3-0.5l1.3,0.5c0,0-1.2,3.6-1.2,11.4c0,5,0.8,8.4,0.9,8.8l0.1,0.4h92.2l-0.1-3.4c-0.2-15.4-1-20.4-4.5-29.8   C519.6,153.6,493.4,135.7,465.4,135.7 M780.8,159.8c23.8,0,33.8,11.6,50.1,44.4l33.8,67l26-0.1L856.9,202   c-18.6-41.6-37.9-67.3-76.1-67.3c-37.6,0-68.2,30.6-68.2,68.2c0,37.6,30.6,68.2,68.2,68.2c10.3,0,35.8-2.3,50.8-23l0.2-0.3   l-11.6-22.9l-0.5,0.9c-7.8,13.8-23.8,23.5-38.9,23.5c-23.5,0-43.4-20.5-43.4-44.8C737.4,180.3,757.3,159.8,780.8,159.8"/>
	<path class="st2" d="M257.4,274.5L351,140.8l-6.9-38.8l-86.8,123.5h0l-78.9-112.3c-11.9-17-31.7-28.1-54-28.1   c-36.4,0-66,29.5-66,65.9c0,36.4,29.5,65.9,66,65.9c23.4,0,44-12.2,55.7-30.6l-18.6-26.6c-3.9,16.8-19,29.3-37,29.3   c-21,0-38.1-17-38.1-38c0-21,17-38,38.1-38c12.9,0,24.3,6.4,31.1,16.2L257.4,274.5L257.4,274.5z"/>
	<path class="st3" d="M257.4,179.3l65.2-93l-38.9,6.8l-26.3,37.7l-34.2-48.8c-21.8-31.1-57.9-51.4-98.7-51.4C57.9,30.6,4,84.5,4,151   c0,66.5,53.9,120.5,120.5,120.5c34.9,0,66.3-14.8,88.3-38.5l-16.5-23.5c-17,20.9-42.8,34.2-71.8,34.2c-51.1,0-92.6-41.4-92.6-92.6   c0-50.7,43.5-92.6,92.6-92.6c31.4,0,59.1,15.6,75.8,39.5L257.4,179.3L257.4,179.3z"/>
	<polygon class="st1" points="352.5,67.4 268.1,82.2 289.2,57 351.1,44.6 366.4,26.2 383.4,23.2 386.4,40.2 374.4,60.9 383.9,123.3    367.4,151.8  "/>
</g>
</svg>