<?xml version="1.0" encoding="UTF-8"?>
<!-- Generator: Adobe Illustrator 23.0.0, SVG Export Plug-In . SVG Version: 6.00 Build 0)  -->
<svg version="1.1" id="Calque_1" xmlns="http://www.w3.org/2000/svg" xmlns:xlink="http://www.w3.org/1999/xlink" x="0px" y="0px" viewBox="0 0 211 49" style="enable-background:new 0 0 211 49;" xml:space="preserve">
<style type="text/css">
	.st0{fill:#00778B;}
	.st1{clip-path:url(#SVGID_2_);fill:url(#SVGID_3_);}
</style>
<path class="st0" d="M167.06,11.78L167.06,11.78c-0.99,0.02-1.71,0.42-2.11,1.16v-1.15h-0.54v5.42h0.54v-2.92  c0.09-1.2,0.84-1.93,2.01-1.96c1.06,0,1.67,0.61,1.67,1.67v3.21h0.54v-3.29C169.17,12.57,168.38,11.78,167.06,11.78"/>
<path class="st0" d="M171.37,9.89c-0.23,0-0.41,0.19-0.41,0.42c0,0.24,0.19,0.43,0.41,0.43c0.23,0,0.41-0.19,0.41-0.43  C171.78,10.08,171.6,9.89,171.37,9.89"/>
<rect x="171.1" y="11.79" class="st0" width="0.53" height="5.42"/>
<path class="st0" d="M177.52,15.98c-0.4,0.47-1,0.72-1.69,0.72c-1.25,0-2.13-0.91-2.13-2.21c0-1.29,0.88-2.19,2.13-2.19  c0.61,0,1.15,0.21,1.6,0.62l0.04,0.04l0.32-0.39l-0.04-0.04c-0.49-0.49-1.18-0.76-1.93-0.76c-1.54,0-2.65,1.15-2.65,2.72  c0,1.57,1.12,2.71,2.65,2.71c0.83,0,1.55-0.31,2.04-0.89l0.03-0.04l-0.33-0.36L177.52,15.98z"/>
<path class="st0" d="M181.32,11.78c-1.53,0-2.64,1.15-2.64,2.72c0,1.57,1.11,2.71,2.64,2.71c0.84,0,1.58-0.31,2.1-0.86l0.04-0.04  l-0.32-0.36L183.08,16c-0.42,0.46-1.04,0.71-1.75,0.71c-1.19,0-2.04-0.82-2.13-2.04h4.62l0-0.06c0.02-0.88-0.25-1.64-0.74-2.14  C182.65,12.02,182.03,11.78,181.32,11.78 M181.32,12.28c1.12,0,1.91,0.74,2.01,1.9h-4.11C179.35,13.04,180.18,12.28,181.32,12.28"/>
<path class="st0" d="M190.75,16.39c-0.27,0.19-0.58,0.3-0.86,0.3c-0.22,0-0.4-0.06-0.52-0.18c-0.17-0.17-0.26-0.46-0.26-0.87V12.4  h1.8v-0.48h-1.8v-1.31h-0.52v1.31h-0.77v0.48h0.77v3.28c0,0.55,0.13,0.96,0.4,1.22c0.21,0.21,0.49,0.31,0.84,0.31  c0.39,0.01,0.79-0.12,1.16-0.39l0.04-0.03l-0.21-0.45L190.75,16.39z"/>
<path class="st0" d="M194.3,11.78c-1.55,0-2.67,1.14-2.67,2.71c0,1.58,1.12,2.72,2.67,2.72c1.55,0,2.67-1.15,2.67-2.72  C196.97,12.92,195.84,11.78,194.3,11.78 M194.3,16.7c-1.26,0-2.14-0.9-2.14-2.2c0-1.3,0.88-2.2,2.14-2.2c1.26,0,2.14,0.91,2.14,2.2  C196.44,15.8,195.56,16.7,194.3,16.7"/>
<path class="st0" d="M169.02,23.11c-0.43-0.76-1.19-1.19-2.12-1.19c-1.45,0-2.5,1.1-2.5,2.61c0,1.51,1.06,2.6,2.51,2.6  c0.92,0,1.69-0.43,2.11-1.17v0.75c0,0.63-0.2,1.17-0.58,1.54c-0.37,0.37-0.89,0.56-1.51,0.56h-0.02c-0.76-0.02-1.33-0.26-1.88-0.77  L164.99,28l-0.29,0.41l0.04,0.03c0.64,0.58,1.34,0.86,2.18,0.88h0.02c0.77,0,1.42-0.24,1.88-0.7c0.47-0.46,0.71-1.13,0.71-1.91  v-4.78h-0.52V23.11z M169.02,24.55c0,1.22-0.87,2.11-2.06,2.11c-1.19,0-2.05-0.89-2.05-2.11c0-1.23,0.86-2.12,2.05-2.12  C168.16,22.43,169.02,23.32,169.02,24.55"/>
<path class="st0" d="M175.48,24.59c0,1.37-0.74,2.2-1.98,2.23c-1.04,0-1.64-0.61-1.64-1.67v-3.21h-0.53v3.29  c0,1.34,0.78,2.13,2.08,2.13c0.96-0.01,1.68-0.43,2.07-1.2v1.19h0.53v-5.42h-0.53V24.59z"/>
<rect x="178.13" y="21.94" class="st0" width="0.53" height="5.42"/>
<path class="st0" d="M178.4,20.04c-0.23,0-0.41,0.19-0.41,0.42c0,0.24,0.19,0.43,0.41,0.43c0.23,0,0.41-0.19,0.41-0.43  C178.81,20.23,178.62,20.04,178.4,20.04"/>
<path class="st0" d="M185.04,23.14c-0.45-0.78-1.25-1.23-2.21-1.23c-1.52,0-2.63,1.15-2.63,2.74c0,1.58,1.11,2.73,2.64,2.73  c0.95,0,1.76-0.46,2.2-1.23v1.2h0.54v-7.66h-0.54V23.14z M185.04,24.65c0,1.29-0.9,2.22-2.15,2.22c-1.26,0-2.15-0.91-2.16-2.22  c0.01-1.29,0.92-2.22,2.16-2.22C184.14,22.43,185.04,23.36,185.04,24.65"/>
<path class="st0" d="M192.33,24.76c0.02-0.88-0.25-1.64-0.74-2.14c-0.44-0.45-1.06-0.69-1.78-0.69c-1.53,0-2.64,1.14-2.64,2.72  c0,1.57,1.11,2.71,2.64,2.71c0.84,0,1.58-0.31,2.1-0.86l0.04-0.04l-0.32-0.36l-0.04,0.05c-0.42,0.46-1.04,0.71-1.75,0.71  c-1.2,0-2.04-0.82-2.13-2.04h4.62L192.33,24.76z M189.81,22.43c1.12,0,1.91,0.74,2.01,1.9h-4.11  C187.84,23.19,188.67,22.43,189.81,22.43"/>
<path class="st0" d="M167.04,36.78l-1.9-4.67l-0.01-0.04h-0.57l2.21,5.36l-0.24,0.58c-0.24,0.59-0.63,0.92-1.09,0.92  c-0.29,0-0.55-0.08-0.77-0.23l-0.06-0.04l-0.24,0.47l0.04,0.03c0.28,0.21,0.64,0.32,1.04,0.32c0.65,0,1.19-0.45,1.52-1.26l2.46-6.06  l0.03-0.08h-0.57L167.04,36.78z"/>
<path class="st0" d="M172.45,32.06c-1.55,0-2.67,1.14-2.67,2.71c0,1.58,1.12,2.72,2.67,2.72c1.55,0,2.67-1.15,2.67-2.72  C175.12,33.2,173.99,32.06,172.45,32.06 M172.45,36.99c-1.26,0-2.14-0.9-2.14-2.2c0-1.29,0.88-2.2,2.14-2.2  c1.26,0,2.14,0.91,2.14,2.2C174.59,36.08,173.71,36.99,172.45,36.99"/>
<path class="st0" d="M180.63,32.07v2.65c0,1.37-0.74,2.2-1.98,2.23c-1.04,0-1.64-0.61-1.64-1.67v-3.21h-0.53v3.29  c0,1.34,0.78,2.13,2.08,2.13c0.96-0.01,1.68-0.43,2.07-1.2v1.19h0.53v-5.42H180.63z"/>
<g>
	<defs>
		<path id="SVGID_1_" d="M81.61,48.94h3.19l-0.01-8.29L81.61,48.94z M85.96,48.94h4.48l2.38-6.2l-6.87-3.96L85.96,48.94z     M86.53,37.78l6.71,3.86l3.82-9.96L86.53,37.78z M72.09,29.47l3.6,2.08c0.38-0.66,0.7-1.35,0.96-2.08H72.09z M122.76,29.47    l3.48,6.02c1.94-1.56,3.45-3.63,4.32-6.02H122.76z M113.75,22.03l-9.49,5.49c1.26,6.26,6.79,10.98,13.43,10.98    c2.82,0,5.44-0.86,7.62-2.33l-3.59-6.21c-1.11,0.87-2.51,1.4-4.03,1.4c-2.85,0-5.27-1.83-6.18-4.37h8.49l-2.87-4.96H113.75z     M50.38,27.66c1.32,6.19,6.81,10.84,13.4,10.84c4.7,0,8.84-2.37,11.3-5.98l-5.3-3.06h-1.4c-1.18,1.17-2.81,1.89-4.6,1.89    c-2.86,0-5.28-1.83-6.18-4.37h7.87l-11.04-6.36L50.38,27.66z M50.08,24.8c0,0.33,0.02,0.66,0.04,0.99l3.31-5.74l-2.01-1.16    C50.56,20.68,50.08,22.68,50.08,24.8 M119.73,18.57c1.73,0.57,3.13,1.83,3.9,3.46h-5.16l2.87,4.96h2.53h7.35    c0.11-0.71,0.18-1.44,0.18-2.19c0-4.1-1.8-7.77-4.65-10.28L119.73,18.57z M103.99,24.8c0,0.5,0.03,1,0.08,1.49l7.81-4.52    c0.71-1.37,1.9-2.46,3.34-3.05l-3.59-6.21C107.1,14.75,103.99,19.41,103.99,24.8 M51.96,17.87l2.04,1.18l3.78-6.57    C55.36,13.66,53.33,15.55,51.96,17.87 M77.26,11.78l7.53,21.23l-0.02-21.23H77.26z M95.81,11.78l-5.17,13.5l-4.45-13.5h-0.28    l0.02,24.5v0.5l0.15-0.08l11.62-6.73l6.98-18.19H95.81z M59.53,11.78l-4.52,7.85l3.15,1.81c1.14-1.91,3.23-3.2,5.62-3.2    c2.63,0,4.89,1.55,5.94,3.79H59.18l8.61,4.96h2.16h7.34c0.12-0.71,0.18-1.44,0.18-2.19c0-7.57-6.13-13.7-13.7-13.7    C62.29,11.1,60.87,11.34,59.53,11.78 M112.68,12.05l3.67,6.33c0.43-0.09,0.88-0.14,1.33-0.14c0.1,0,0.19,0.01,0.28,0.01l7.8-4.51    c-2.27-1.66-5.06-2.64-8.08-2.64C115.92,11.1,114.23,11.44,112.68,12.05 M-0.36,19.28c0,4.06,2.62,6.67,8.62,8.45    c3.69,1.11,4.58,1.72,4.58,2.89c0,1.06-0.89,1.83-2.08,1.83c-1.55,0-2.2-0.72-2.56-2.61h-8.56c0.18,5.39,4.4,8.67,11.12,8.67    c6.72,0,11.18-3.5,11.18-8.72c0-4.5-2.8-6.89-10.53-8.94c-2.32-0.61-3.15-1.22-3.15-2.28c0-1,0.89-1.72,2.14-1.72    c1.49,0,2.62,0.89,2.62,2.05v0.5h8.38c-0.06-5.39-4.1-8.61-10.64-8.61C4.1,10.78-0.36,14.17-0.36,19.28 M134.38,19.28    c0,4.06,2.62,6.67,8.62,8.45c3.69,1.11,4.58,1.72,4.58,2.89c0,1.06-0.89,1.83-2.08,1.83c-1.54,0-2.2-0.72-2.56-2.61h-8.56    c0.18,5.39,4.4,8.67,11.12,8.67c6.72,0,11.18-3.5,11.18-8.72c0-4.5-2.8-6.89-10.53-8.94c-2.32-0.61-3.15-1.22-3.15-2.28    c0-1,0.89-1.72,2.14-1.72c1.49,0,2.62,0.89,2.62,2.05v0.5h8.38c-0.06-5.39-4.1-8.61-10.64-8.61    C138.84,10.78,134.38,14.17,134.38,19.28 M26.01,0.44V37.5h8.44V27.22l5.72,10.28h9.55L42.23,24l7.5-12.22h-9.55l-5.72,9.17V0.44    H26.01z"/>
	</defs>
	<clipPath id="SVGID_2_">
		<use xlink:href="#SVGID_1_" style="overflow:visible;"/>
	</clipPath>
	
		<linearGradient id="SVGID_3_" gradientUnits="userSpaceOnUse" x1="-303.0978" y1="379.6112" x2="-302.0978" y2="379.6112" gradientTransform="matrix(141.4082 54.2815 54.2815 -141.4082 22262.0488 70130.2891)">
		<stop offset="0" style="stop-color:#11BEDD"/>
		<stop offset="0.15" style="stop-color:#11BEDD"/>
		<stop offset="0.85" style="stop-color:#00778B"/>
		<stop offset="1" style="stop-color:#00778B"/>
	</linearGradient>
	<polygon class="st1" points="19.81,-52.1 172.91,6.67 136.51,101.48 -16.59,42.71  "/>
</g>
<polygon class="st0" points="191.97,48.93 210.59,0.42 210.01,0.42 191.38,48.93 "/>
</svg>